#!OML:ASF X:\für Bonn\!DataBase\2005_08_12_Daniel\c3d\Daniel.ASF
:FULLY-SPECIFIED
:DEGREES
51
root -1.20149 17.497 1.46251 -329.799 -74.3905 295.489
lowerback 54.1524 -17.9139 -0.401092
upperback 12.3483 -24.7687 -1.38208
thorax -6.02707 -13.0969 8.97921
lowerneck -3.96371 10.7736 -0.847915
upperneck 5.56115 14.7934 -7.4557
head 3.03957 7.03448 -1.65543
rclavicle 3.49861e-014 3.49861e-014
rhumerus -65.2542 7.54266 -71.9855
rradius 42.6595
rwrist 12.7416
rhand -24.8977 39.6602
rfingers 7.12502
rthumb 1.61039 9.68657
lclavicle 3.49861e-014 3.49861e-014
lhumerus 38.6129 -9.32752 80.6564
lradius 124.82
lwrist 22.6472
lhand -25.838 -23.5027
lfingers 7.12502
lthumb 0.702252 6.47584
rfemur -84.1254 -13.8291 35.1049
rtibia 122.249
rfoot -2.80915 12.9422
rtoes -17.5565
lfemur 24.1968 -10.4778 -12.3597
ltibia 21.471
lfoot -13.9228 -5.90206
ltoes 7.58929
52
root -1.19754 17.4879 1.47378 -329.227 -74.6426 295.071
lowerback 53.8718 -17.8141 -0.433855
upperback 12.2261 -24.6486 -1.33065
thorax -6.12836 -13.0177 9.00417
lowerneck -3.85712 10.7328 -0.996088
upperneck 5.70684 14.7438 -7.40325
head 3.05024 7.00234 -1.62119
rclavicle -6.75868e-014 2.54444e-014
rhumerus -65.3645 7.75641 -72.4964
rradius 43.3535
rwrist 11.9024
rhand -24.8408 39.2403
rfingers 7.12502
rthumb 1.66535 9.26705
lclavicle -6.75868e-014 2.54444e-014
lhumerus 38.9203 -8.82371 80.1468
lradius 124.712
lwrist 22.7902
lhand -26.215 -23.3196
lfingers 7.12502
lthumb 0.338085 6.6599
rfemur -83.0428 -13.9324 34.7732
rtibia 121.884
rfoot -2.44765 12.8788
rtoes -17.6276
lfemur 23.9056 -10.3093 -12.4153
ltibia 21.7916
lfoot -14.0099 -6.13694
ltoes 7.60332
53
root -1.19373 17.4783 1.48437 -328.556 -74.9294 294.59
lowerback 53.527 -17.683 -0.478839
upperback 12.1219 -24.4993 -1.27673
thorax -6.2022 -12.9283 9.01509
lowerneck -3.86838 10.6958 -1.03271
upperneck 5.91604 14.7084 -7.42612
head 3.1221 6.97146 -1.61896
rclavicle -3.1408e-014 -1.59028e-014
rhumerus -65.3604 7.96175 -72.9636
rradius 44.1524
rwrist 11.185
rhand -24.8053 38.9297
rfingers 7.12502
rthumb 1.69958 8.95673
lclavicle -3.1408e-014 -1.59028e-014
lhumerus 39.0711 -8.2638 79.5357
lradius 124.761
lwrist 22.9137
lhand -26.3551 -23.2729
lfingers 7.12502
lthumb 0.202804 6.70678
rfemur -81.8271 -14.0076 34.3027
rtibia 121.49
rfoot -1.91467 12.8682
rtoes -16.8422
lfemur 23.561 -10.1475 -12.506
ltibia 22.1588
lfoot -14.1133 -6.3164
ltoes 7.70968
54
root -1.18862 17.4689 1.4941 -327.871 -75.2235 294.126
lowerback 53.1346 -17.5547 -0.498359
upperback 12.0092 -24.336 -1.24126
thorax -6.29516 -12.8251 8.99318
lowerneck -3.86253 10.6499 -1.10613
upperneck 6.13528 14.6578 -7.35703
head 3.18177 6.93597 -1.58345
rclavicle -3.10104e-014 -5.725e-014
rhumerus -65.3091 8.10037 -73.3683
rradius 45.0936
rwrist 10.618
rhand -24.7244 38.7709
rfingers 7.12502
rthumb 1.77774 8.79856
lclavicle -3.10104e-014 -5.725e-014
lhumerus 39.0556 -7.71563 78.8662
lradius 124.973
lwrist 23.06
lhand -26.3226 -23.4056
lfingers 7.12502
lthumb 0.234164 6.574
rfemur -80.5256 -14.1223 33.7633
rtibia 121.08
rfoot -1.46224 12.8917
rtoes -16.3031
lfemur 23.1039 -10.0194 -12.6282
ltibia 22.6801
lfoot -14.3111 -6.49565
ltoes 7.7134
55
root -1.18384 17.4598 1.50375 -327.029 -75.528 293.539
lowerback 52.7217 -17.4081 -0.518166
upperback 11.8672 -24.1446 -1.16772
thorax -6.40435 -12.7074 9.00047
lowerneck -3.81841 10.6002 -1.24449
upperneck 6.32141 14.6011 -7.30229
head 3.21872 6.89689 -1.54577
rclavicle -7.71285e-014 9.38264e-014
rhumerus -65.177 8.21016 -73.6433
rradius 46.1373
rwrist 10.2609
rhand -24.6816 38.7965
rfingers 7.12502
rthumb 1.81904 8.82453
lclavicle -7.71285e-014 9.38264e-014
lhumerus 38.872 -7.19205 78.2207
lradius 125.334
lwrist 23.2617
lhand -26.1206 -23.6019
lfingers 7.12502
lthumb 0.429244 6.37743
rfemur -79.2034 -14.2299 33.2114
rtibia 120.648
rfoot -1.06067 12.8822
rtoes -15.9098
lfemur 22.5584 -9.87058 -12.7407
ltibia 23.3247
lfoot -14.5734 -6.666
ltoes 7.73964
56
root -1.18061 17.4433 1.51295 -325.986 -75.7753 293.032
lowerback 51.9884 -17.3218 -0.415451
upperback 11.7268 -23.9498 -1.08645
thorax -6.49952 -12.5789 8.94379
lowerneck -3.68985 10.5414 -1.40419
upperneck 6.44844 14.5231 -7.21764
head 3.21431 6.85263 -1.50257
rclavicle -7.4743e-014 1.27222e-014
rhumerus -64.916 8.40492 -74.0506
rradius 47.118
rwrist 9.8828
rhand -24.7547 38.9104
rfingers 7.12502
rthumb 1.74849 8.93784
lclavicle -7.4743e-014 1.27222e-014
lhumerus 38.6475 -6.7482 77.6032
lradius 125.746
lwrist 23.4599
lhand -25.8482 -23.8555
lfingers 7.12502
lthumb 0.692328 6.12315
rfemur -77.9785 -14.3147 32.7112
rtibia 120.13
rfoot -0.743816 12.7986
rtoes -15.5586
lfemur 21.6181 -9.7656 -12.8055
ltibia 24.1051
lfoot -14.8699 -6.8247
ltoes 7.69834
57
root -1.17446 17.4279 1.52227 -324.755 -76.0481 292.382
lowerback 51.2233 -17.1994 -0.306038
upperback 11.5721 -23.7059 -0.97486
thorax -6.59589 -12.4278 8.89157
lowerneck -3.61308 10.4658 -1.58199
upperneck 6.60061 14.4273 -7.13025
head 3.22606 6.79667 -1.45296
rclavicle -1.28415e-013 6.52014e-014
rhumerus -64.5384 8.82024 -74.6264
rradius 48.0067
rwrist 9.39921
rhand -25.101 38.9734
rfingers 7.12502
rthumb 1.41406 8.99832
lclavicle -1.28415e-013 6.52014e-014
lhumerus 38.5065 -6.34086 77.048
lradius 126.121
lwrist 23.7995
lhand -25.5133 -24.0437
lfingers 7.12502
lthumb 1.01581 5.93364
rfemur -76.5175 -14.3153 32.2017
rtibia 119.476
rfoot -0.573031 12.6285
rtoes -15.3118
lfemur 20.6366 -9.63943 -12.8709
ltibia 24.8814
lfoot -15.1826 -6.94586
ltoes 7.61525
58
root -1.16838 17.4134 1.53056 -323.45 -76.354 291.706
lowerback 50.3819 -17.0461 -0.229009
upperback 11.4247 -23.4424 -0.849641
thorax -6.65834 -12.272 8.84347
lowerneck -3.54323 10.3917 -1.80199
upperneck 6.7509 14.3353 -7.05114
head 3.23616 6.74056 -1.39888
rclavicle 6.36111e-015 -9.38264e-014
rhumerus -64.0499 9.22797 -75.1793
rradius 48.8765
rwrist 9.0325
rhand -25.4969 38.9573
rfingers 7.12502
rthumb 1.03167 8.98009
lclavicle 6.36111e-015 -9.38264e-014
lhumerus 38.5257 -5.93354 76.5516
lradius 126.416
lwrist 24.2534
lhand -25.2427 -24.1727
lfingers 7.12502
lthumb 1.27716 5.80325
rfemur -75.044 -14.3012 31.6529
rtibia 118.839
rfoot -0.51705 12.413
rtoes -15.2342
lfemur 19.6132 -9.53342 -12.989
ltibia 25.661
lfoot -15.5247 -6.98612
ltoes 7.56573
